<?xml version="1.0" encoding="utf-8"?>
<!-- Generator: Adobe Illustrator 22.0.1, SVG Export Plug-In . SVG Version: 6.00 Build 0)  -->
<svg version="1.1" id="Layer_1" xmlns="http://www.w3.org/2000/svg" xmlns:xlink="http://www.w3.org/1999/xlink" x="0px" y="0px"
	 viewBox="0 0 43 28.3" style="enable-background:new 0 0 43 28.3;" xml:space="preserve">
<style type="text/css">
	.st0{fill:#2C2F4E;}
</style>
<path class="st0" d="M0.4,28v-0.9c4.5,0,7.8-1.1,9.9-3.4c2.6-2.8,2.4-6.4,2.4-6.4l0,0v-16H4.5V0.4h9v16.8c0,0.3,0.2,4.1-2.6,7.1
	C8.7,26.8,5.1,28,0.4,28z"/>
<path class="st0" d="M29.6,28.3C22.1,28.3,16,22,16,14.2c0-7.8,6.1-14.1,13.5-14.1C35,0.1,39.9,3.4,42,8.6L41.2,9
	c-2-4.9-6.6-8-11.6-8c-7,0-12.6,5.9-12.6,13.2s5.7,13.2,12.6,13.2c5.7,0,10.8-4.1,12.2-9.9H29.9v-0.9h13l-0.1,0.5
	C41.5,23.6,35.9,28.3,29.6,28.3z"/>
</svg>
