<?xml version="1.0" encoding="utf-8"?>
<!-- Generator: Adobe Illustrator 22.0.1, SVG Export Plug-In . SVG Version: 6.00 Build 0)  -->
<svg version="1.1" id="Layer_1" xmlns="http://www.w3.org/2000/svg" xmlns:xlink="http://www.w3.org/1999/xlink" x="0px" y="0px"
	 viewBox="0 0 283.5 283.5" style="enable-background:new 0 0 283.5 283.5;" xml:space="preserve">
<style type="text/css">
	.st0{fill:#B31F33;}
</style>
<path class="st0" d="M197.3,106.6v-0.9c4.5,0,7.8-1.1,9.9-3.4c2.6-2.8,2.4-6.4,2.4-6.4l0,0v-16h-8.2v-0.9h9v16.8
	c0,0.3,0.2,4.1-2.6,7.1C205.5,105.3,202,106.6,197.3,106.6z"/>
<path class="st0" d="M226.4,106.8c-7.5,0-13.5-6.3-13.5-14.1s6.1-14.1,13.5-14.1c5.4,0,10.3,3.4,12.5,8.6l-0.8,0.3
	c-2-4.9-6.6-8-11.6-8c-7,0-12.6,5.9-12.6,13.2s5.7,13.2,12.6,13.2c5.7,0,10.8-4.1,12.2-9.9h-11.9v-0.9h13l-0.1,0.5
	C238.3,102.2,232.8,106.8,226.4,106.8z"/>
</svg>
