<?xml version="1.0" encoding="utf-8"?>
<!-- Generator: Adobe Illustrator 22.0.1, SVG Export Plug-In . SVG Version: 6.00 Build 0)  -->
<svg version="1.1" id="Layer_1" xmlns="http://www.w3.org/2000/svg" xmlns:xlink="http://www.w3.org/1999/xlink" x="0px" y="0px"
	 viewBox="0 0 283.5 283.5" style="enable-background:new 0 0 283.5 283.5;" xml:space="preserve">
<style type="text/css">
	.st0{fill:#B31F33;}
</style>
<path class="st0" d="M47,203.8v-4c19.9,0,34.8-5.1,44.3-15.2C103,172,102,155.9,102,155.7l0-0.1V84.1H65.5v-4H106v75.4
	c0.1,1.4,0.8,18.3-11.8,31.8C84,198.3,68.1,203.8,47,203.8z"/>
<path class="st0" d="M177.7,205c-33.4,0-60.6-28.4-60.6-63.2s27.2-63.2,60.6-63.2c24.3,0,46.2,15.1,55.8,38.3l-3.7,1.5
	c-8.9-21.8-29.4-35.9-52.1-35.9c-31.2,0-56.6,26.6-56.6,59.2s25.4,59.2,56.6,59.2c25.7,0,48.3-18.4,54.8-44.2h-53.3v-4h58.3
	l-0.5,2.4C230.9,184.1,206,205,177.7,205z"/>
</svg>
